<?xml version="1.0" encoding="utf-8"?>
<!-- Generator: Adobe Illustrator 16.0.3, SVG Export Plug-In . SVG Version: 6.00 Build 0)  -->
<!DOCTYPE svg PUBLIC "-//W3C//DTD SVG 1.1//EN" "http://www.w3.org/Graphics/SVG/1.1/DTD/svg11.dtd">
<svg version="1.1" id="Шар_1" xmlns="http://www.w3.org/2000/svg" xmlns:xlink="http://www.w3.org/1999/xlink" x="0px" y="0px"
	 width="375px" height="165px" viewBox="0 0 375 165" enable-background="new 0 0 375 165" xml:space="preserve">
<image display="none" overflow="visible" width="450" height="470" xlink:href="8894EBE8.jpg"  transform="matrix(1 0 0 1 -110.1572 -140.667)">
</image>
<image display="none" overflow="visible" width="450" height="470" xlink:href="8894EBE9.jpg"  transform="matrix(0.2158 0.0298 -0.0298 0.2158 124.7588 -3.3872)">
</image>
<g id="Шар_2" display="none">
	<path display="inline" fill="none" stroke="#000000" stroke-miterlimit="10" d="M38,105.667c0,0,4.906,29.537,11.221,35.596
		c5.5,5.279,11.117,6.115,17.539-6.059c5.613-10.643,9.121-21.727,11.811-34.434c1.749-8.26,4.794-31.33,5.496-44.482
		c0.701-13.153,1.52-21.872-0.351-24.089c-1.594-1.888-5.262,0.296-7.485,7.094c-2.075,6.349-1.87,10.345-2.104,13.891
		c-0.215,3.252,0.233,11.676,3.157,20.541c2.936,8.906,4.563,11.703,6.197,14.039c7.132,10.197,9.121,13.154,15.201,18.621
		c10.624,9.555,17.079,12.998,20.112,15.961c5.145,5.023,7.017,9.752,7.133,13.447c0.145,4.617-1.833,9.193-5.262,10.936
		c-10.759,5.467-15.827-2.834-17.072-10.344c-1.521-9.162-0.13-19.822,0.234-25.123c1.285-18.768,1.447-17.383,3.201-30.389"/>
	<path display="inline" fill="none" stroke="#000000" stroke-width="0.5" stroke-miterlimit="10" d="M107.146,81.844
		c-8.72,1.624-16.107-3.76-16.107-3.76"/>
	<path display="inline" fill="none" stroke="#000000" stroke-width="0.5" stroke-miterlimit="10" d="M106.703,81.779
		c-12.414,0.296-18.324-10.348-18.324-10.348"/>
	<path display="inline" fill="none" stroke="#000000" stroke-width="0.5" stroke-miterlimit="10" d="M89.56,68.182
		c0,0,5.898,12.068,16.856,13.485"/>
	<path display="inline" fill="none" stroke="#000000" stroke-width="0.5" stroke-miterlimit="10" d="M91.629,65.818
		c0,0,4.62,14.057,15.704,15.682"/>
	<path display="inline" fill="none" stroke="#000000" stroke-width="0.5" stroke-miterlimit="10" d="M106.896,81.469
		c-7.313-1.719-12.162-19.198-12.162-19.198"/>
	<path display="inline" fill="none" stroke="#000000" stroke-width="0.5" stroke-miterlimit="10" d="M98.583,66.416
		c0,0,3.363,9.432,7.5,14.751"/>
	<path display="inline" fill="none" stroke="#000000" stroke-width="0.5" stroke-miterlimit="10" d="M101.383,60.645
		c0,0,3.15,18.934,5.367,20.855"/>
	<path display="inline" fill="none" stroke="#000000" stroke-width="0.5" stroke-miterlimit="10" d="M105.52,60.497
		c0,0,0.74,20.385,1.48,21.42"/>
	<path display="inline" fill="none" stroke="#000000" stroke-width="0.5" stroke-miterlimit="10" d="M109.363,60.793
		c0,0-2.093,13.209-2.093,20.895"/>
	<path display="inline" fill="none" stroke="#000000" stroke-width="0.5" stroke-miterlimit="10" d="M107.416,81.5
		c3.25-7.685,5.197-19.082,5.197-19.082"/>
	<path display="inline" fill="none" stroke="#000000" stroke-width="0.5" stroke-miterlimit="10" d="M116.457,65.818
		c0,0-5.321,13.388-9.312,15.9"/>
	<path display="inline" fill="none" stroke="#000000" stroke-width="0.5" stroke-miterlimit="10" d="M120.149,68.625
		c0,0-7.505,10.675-12.973,13.188"/>
	<path display="inline" fill="none" stroke="#000000" stroke-width="0.5" stroke-miterlimit="10" d="M124.584,69.512
		c0,0-13.992,12.405-17.834,12.405"/>
	<path display="inline" fill="none" stroke="#000000" stroke-width="0.5" stroke-miterlimit="10" d="M123.254,74.39
		c0,0-9.887,6.751-15.504,7.193"/>
	<path display="inline" fill="none" stroke="#000000" stroke-width="0.5" stroke-miterlimit="10" d="M127.687,73.945
		c0,0-13.115,8.986-21.687,7.805"/>
	<path display="inline" fill="none" stroke="#000000" stroke-width="0.5" stroke-miterlimit="10" d="M122.864,78.844
		c-2.906,0.923-7.844,4.625-15.594,3.219"/>
	<path display="inline" d="M92.25,65.542c0,0.311-0.304,0.542-0.666,0.542s-0.656-0.544-0.656-0.854s0.294-0.563,0.656-0.563
		S92.25,65.231,92.25,65.542z"/>
	<path display="inline" d="M90.083,68.188c0,0.311-0.266,0.563-0.594,0.563s-0.594-0.252-0.594-0.563s0.276-0.979,0.604-0.979
		S90.083,67.877,90.083,68.188z"/>
	<path display="inline" d="M88.979,71.489c0,0.396-0.123,0.74-0.416,0.74s-0.542-0.354-0.542-0.75c0-0.397,0.134-0.709,0.427-0.709
		S88.979,71.093,88.979,71.489z"/>
	<path display="inline" d="M91.875,78.625c0,0.362,0.02,0.084-0.291,0.084s-1.001-0.128-1.001-0.49s0.252-0.656,0.563-0.656
		S91.875,78.263,91.875,78.625z"/>
	<ellipse display="inline" cx="94.614" cy="62.031" rx="0.656" ry="0.719"/>
	<ellipse display="inline" cx="98.646" cy="66.531" rx="0.625" ry="0.781"/>
	<path display="inline" d="M102.094,60.511c0,0.328-0.238,0.864-0.635,0.864s-0.803-0.536-0.803-0.864s0.322-0.594,0.719-0.594
		S102.094,60.183,102.094,60.511z"/>
	<path display="inline" d="M106.188,60.553c0,0.396-0.468,0.708-0.709,0.708s-0.438-0.321-0.438-0.719s0.196-0.719,0.438-0.719
		S106.188,60.156,106.188,60.553z"/>
	<ellipse display="inline" cx="109.354" cy="60.917" rx="0.563" ry="0.688"/>
	<path display="inline" d="M113.271,62.406c0,0.362-0.252,0.656-0.563,0.656s-0.666,0.133-0.666-0.229
		c0-0.363,0.355-1.084,0.666-1.084S113.271,62.044,113.271,62.406z"/>
	<path display="inline" d="M115.833,65.813c0,0.346,0.079,0.938,0.459,0.938s0.916-0.592,0.916-0.938s-0.308-0.625-0.688-0.625
		S115.833,65.467,115.833,65.813z"/>
	<path display="inline" d="M120.75,68.917c0,0.432-0.266,0.781-0.594,0.781s-0.864-0.267-0.864-0.698s0.536-0.864,0.864-0.864
		S120.75,68.485,120.75,68.917z"/>
	<path display="inline" d="M125.167,69.251c0,0.328-0.372,0.854-0.631,0.854s-0.666-0.422-0.666-0.75s0.366-0.792,0.625-0.792
		S125.167,68.923,125.167,69.251z"/>
	<ellipse display="inline" cx="123.146" cy="74.281" rx="0.688" ry="0.656"/>
	<ellipse display="inline" cx="127.864" cy="73.844" rx="0.594" ry="0.719"/>
	<path display="inline" d="M121.771,78.969c0,0.189,0.374,0.656,0.875,0.656s0.938-0.467,0.938-0.656s-0.249-0.656-0.75-0.656
		S121.771,78.779,121.771,78.969z"/>
	<path display="inline" fill="none" stroke="#000000" stroke-width="0.5" stroke-miterlimit="10" d="M82.53,31.781
		c-8.72,1.624-18.019-3.059-18.019-3.059"/>
	<path display="inline" fill="none" stroke="#000000" stroke-width="0.5" stroke-miterlimit="10" d="M82.088,31.718
		c-11.457,0.231-18.822-7.372-18.822-7.372"/>
	<path display="inline" fill="none" stroke="#000000" stroke-width="0.5" stroke-miterlimit="10" d="M63.033,18.819
		c0,0,7.81,11.368,18.768,12.785"/>
	<path display="inline" fill="none" stroke="#000000" stroke-width="0.5" stroke-miterlimit="10" d="M65.891,18.783
		c0,0,6.3,11.27,16.827,12.654"/>
	<path display="inline" fill="none" stroke="#000000" stroke-width="0.5" stroke-miterlimit="10" d="M82.28,31.406
		c-6.939-1.545-13.452-16.56-13.452-16.56"/>
	<path display="inline" fill="none" stroke="#000000" stroke-width="0.5" stroke-miterlimit="10" d="M72.203,16.033
		c0,0,5.209,9.383,9.265,15.071"/>
	<path display="inline" fill="none" stroke="#000000" stroke-width="0.5" stroke-miterlimit="10" d="M75.141,13.033
		c0,0,4.895,16.643,6.994,18.404"/>
	<path display="inline" fill="none" stroke="#000000" stroke-width="0.5" stroke-miterlimit="10" d="M78.993,11.135
		c0,0,2.651,19.684,3.392,20.719"/>
	<path display="inline" fill="none" stroke="#000000" stroke-width="0.5" stroke-miterlimit="10" d="M82.578,12.971
		c0,0-0.026,11.488-0.026,18.581"/>
	<path display="inline" fill="none" stroke="#000000" stroke-width="0.5" stroke-miterlimit="10" d="M82.801,31.437
		c3.25-7.685,3.286-18.381,3.286-18.381"/>
	<path display="inline" fill="none" stroke="#000000" stroke-width="0.5" stroke-miterlimit="10" d="M90.016,14.408
		c0,0-3.459,14.411-7.485,17.248"/>
	<path display="inline" fill="none" stroke="#000000" stroke-width="0.5" stroke-miterlimit="10" d="M94.453,17.096
		c0,0-6.074,11.728-11.892,14.654"/>
	<path display="inline" fill="none" stroke="#000000" stroke-width="0.5" stroke-miterlimit="10" d="M95.891,21.658
		c0,0-10.526,10.799-13.756,10.196"/>
	<path display="inline" fill="none" stroke="#000000" stroke-width="0.5" stroke-miterlimit="10" d="M96.728,25.027
		c0,0-8.121,6.3-13.738,6.743"/>
	<path display="inline" fill="none" stroke="#000000" stroke-width="0.5" stroke-miterlimit="10" d="M99.266,25.908
		c0,0-10.204,6.908-18.026,5.924"/>
	<path display="inline" fill="none" stroke="#000000" stroke-width="0.5" stroke-miterlimit="10" d="M96.338,29.481
		c-2.906,0.923-5.933,3.924-13.683,2.518"/>
	<path display="inline" d="M66.719,19.138c0,0.311-0.304,0.542-0.666,0.542s-0.656-0.543-0.656-0.854s0.294-0.563,0.656-0.563
		S66.719,18.827,66.719,19.138z"/>
	<path display="inline" d="M63.557,18.825c0,0.311-0.266,0.563-0.594,0.563s-0.594-0.252-0.594-0.563s0.276-0.979,0.604-0.979
		S63.557,18.515,63.557,18.825z"/>
	<path display="inline" d="M63.869,24.46c0,0.396-0.123,0.74-0.416,0.74s-0.542-0.354-0.542-0.75s0.134-0.708,0.427-0.708
		S63.869,24.063,63.869,24.46z"/>
	<path display="inline" d="M65.349,29.263c0,0.362,0.02,0.084-0.291,0.084s-1.001-0.128-1.001-0.49s0.252-0.656,0.563-0.656
		S65.349,28.9,65.349,29.263z"/>
	<ellipse display="inline" cx="68.891" cy="14.804" rx="0.656" ry="0.719"/>
	<ellipse display="inline" cx="72.225" cy="15.471" rx="0.625" ry="0.781"/>
	<path display="inline" d="M75.943,13.335c0,0.328-0.238,0.864-0.635,0.864s-0.803-0.536-0.803-0.864s0.322-0.594,0.719-0.594
		S75.943,13.007,75.943,13.335z"/>
	<path display="inline" d="M79.662,11.19c0,0.397-0.468,0.708-0.709,0.708s-0.438-0.322-0.438-0.719s0.196-0.719,0.438-0.719
		S79.662,10.793,79.662,11.19z"/>
	<ellipse display="inline" cx="82.558" cy="13.471" rx="0.563" ry="0.688"/>
	<path display="inline" d="M86.744,13.044c0,0.362-0.252,0.656-0.563,0.656s-0.666,0.133-0.666-0.229s0.355-1.083,0.666-1.083
		S86.744,12.682,86.744,13.044z"/>
	<path display="inline" d="M89.537,13.981c0,0.345,0.079,0.938,0.459,0.938s0.916-0.592,0.916-0.938s-0.308-0.625-0.688-0.625
		S89.537,13.636,89.537,13.981z"/>
	<path display="inline" d="M95.454,16.804c0,0.432-0.266,0.781-0.594,0.781s-0.864-0.267-0.864-0.698s0.536-0.864,0.864-0.864
		S95.454,16.373,95.454,16.804z"/>
	<path display="inline" d="M96.271,21.627c0.104,0.414-0.169,0.948-0.428,0.948s-0.666-0.422-0.666-0.75s0.366-0.792,0.625-0.792
		S96.192,21.31,96.271,21.627z"/>
	<ellipse display="inline" cx="96.619" cy="24.919" rx="0.688" ry="0.656"/>
	<ellipse display="inline" cx="99.225" cy="25.971" rx="0.594" ry="0.719"/>
	<path display="inline" d="M95.244,29.606c0,0.189,0.374,0.656,0.875,0.656s0.938-0.467,0.938-0.656s-0.249-0.656-0.75-0.656
		S95.244,29.417,95.244,29.606z"/>
	<path display="inline" fill="none" stroke="#000000" stroke-width="0.5" stroke-miterlimit="10" d="M38.421,106.484
		c-7.841,4.146-16.496,1.206-16.496,1.206"/>
	<path display="inline" fill="none" stroke="#000000" stroke-width="0.5" stroke-miterlimit="10" d="M37.979,106.555
		c-11.763,3.979-20.574-4.423-20.574-4.423"/>
	<path display="inline" fill="none" stroke="#000000" stroke-width="0.5" stroke-miterlimit="10" d="M19.417,100.416
		c0,0,7.372,8.026,18.255,6.117"/>
	<path display="inline" fill="none" stroke="#000000" stroke-width="0.5" stroke-miterlimit="10" d="M18.837,95.806
		c0,0,8.596,12.044,19.661,10.295"/>
	<path display="inline" fill="none" stroke="#000000" stroke-width="0.5" stroke-miterlimit="10" d="M38.071,106.201
		c-7.493,0.536-17.326-14.707-17.326-14.707"/>
	<path display="inline" fill="none" stroke="#000000" stroke-width="0.5" stroke-miterlimit="10" d="M25.5,92
		c0,0,6.172,10.309,11.705,14.155"/>
	<path display="inline" fill="none" stroke="#000000" stroke-width="0.5" stroke-miterlimit="10" d="M26.608,87.963
		c0,0,8.644,17.137,11.333,18.312"/>
	<path display="inline" fill="none" stroke="#000000" stroke-width="0.5" stroke-miterlimit="10" d="M31.875,89.75
		c0,0,5.414,16.08,6.429,16.848"/>
	<path display="inline" fill="none" stroke="#000000" stroke-width="0.5" stroke-miterlimit="10" d="M35.25,91.5
		c0,0,1.122,8.794,3.41,16.132"/>
	<path display="inline" fill="none" stroke="#000000" stroke-width="0.5" stroke-miterlimit="10" d="M38.577,106.076
		c0.815-8.304-0.719-19.764-0.719-19.764"/>
	<path display="inline" fill="none" stroke="#000000" stroke-width="0.5" stroke-miterlimit="10" d="M42.167,89.333
		c0,0-0.722,13.445-3.783,17.032"/>
	<path display="inline" fill="none" stroke="#000000" stroke-width="0.5" stroke-miterlimit="10" d="M46.9,89.994
		c0,0-3.987,12.425-8.458,16.451"/>
	<path display="inline" fill="none" stroke="#000000" stroke-width="0.5" stroke-miterlimit="10" d="M51.394,89.521
		c0,0-9.661,16.008-13.328,17.152"/>
	<path display="inline" fill="none" stroke="#000000" stroke-width="0.5" stroke-miterlimit="10" d="M51.917,93.583
		c0,0-7.766,10.378-12.997,12.473"/>
	<path display="inline" fill="none" stroke="#000000" stroke-width="0.5" stroke-miterlimit="10" d="M55.675,92.829
		c0,0-9.841,12.483-18.375,13.907"/>
	<path display="inline" fill="none" stroke="#000000" stroke-width="0.5" stroke-miterlimit="10" d="M52.528,98.941
		c-2.495,1.746-6.105,6.75-13.923,7.715"/>
	<path display="inline" d="M19.348,95.356c0.092,0.297-0.128,0.608-0.475,0.716c-0.346,0.108-0.788-0.323-0.881-0.62
		c-0.092-0.297,0.113-0.624,0.459-0.732C18.797,94.612,19.255,95.061,19.348,95.356z"/>
	<path display="inline" d="M20.074,100.518c0.093,0.297-0.086,0.616-0.399,0.714c-0.313,0.098-0.642-0.063-0.734-0.36
		c-0.093-0.296-0.028-1.017,0.286-1.114C19.539,99.659,19.981,100.222,20.074,100.518z"/>
	<path display="inline" d="M17.887,102.151c0.118,0.379,0.103,0.743-0.177,0.831c-0.28,0.087-0.623-0.177-0.741-0.555
		c-0.118-0.38-0.083-0.717,0.196-0.805C17.446,101.536,17.769,101.772,17.887,102.151z"/>
	<path display="inline" d="M22.885,107.958c0.108,0.346,0.043,0.074-0.253,0.167s-0.994,0.176-1.102-0.17s0.045-0.701,0.342-0.794
		S22.777,107.612,22.885,107.958z"/>
	
		<ellipse transform="matrix(0.9547 -0.2976 0.2976 0.9547 -26.2432 10.2573)" display="inline" cx="20.56" cy="91.302" rx="0.656" ry="0.718"/>
	
		<ellipse transform="matrix(0.9547 -0.2977 0.2977 0.9547 -26.1917 11.7545)" display="inline" cx="25.5" cy="91.877" rx="0.625" ry="0.781"/>
	<path display="inline" d="M27.247,87.623c0.098,0.313,0.03,0.896-0.349,1.014c-0.378,0.118-0.926-0.272-1.023-0.586
		c-0.098-0.313,0.131-0.662,0.509-0.78S27.149,87.31,27.247,87.623z"/>
	<path display="inline" d="M32.563,89.554c0.118,0.378-0.236,0.815-0.466,0.887c-0.23,0.072-0.513-0.177-0.632-0.556
		c-0.118-0.38-0.026-0.745,0.204-0.816C31.899,88.996,32.445,89.175,32.563,89.554z"/>
	
		<ellipse transform="matrix(0.9546 -0.2978 0.2978 0.9546 -25.619 14.6064)" display="inline" cx="35.125" cy="91.377" rx="0.562" ry="0.688"/>
	<path display="inline" d="M38.481,86.105c0.108,0.346-0.045,0.701-0.342,0.794c-0.296,0.092-0.596,0.325-0.704-0.021
		c-0.108-0.347,0.017-1.141,0.313-1.232C38.045,85.554,38.374,85.76,38.481,86.105z"/>
	<path display="inline" d="M41.347,89.117c0.103,0.33,0.354,0.872,0.717,0.759s0.698-0.838,0.595-1.168s-0.479-0.505-0.842-0.392
		S41.244,88.787,41.347,89.117z"/>
	<path display="inline" d="M47.59,89.568c0.128,0.412-0.021,0.825-0.334,0.923c-0.313,0.098-0.905,0.003-1.033-0.409
		s0.254-0.984,0.568-1.083C47.104,88.901,47.462,89.156,47.59,89.568z"/>
	<path display="inline" d="M52,89.188c0.098,0.313-0.035,0.862-0.282,0.939c-0.247,0.076-0.761-0.205-0.858-0.519
		c-0.097-0.313,0.114-0.864,0.36-0.941C51.467,88.59,51.902,88.874,52,89.188z"/>
	
		<ellipse transform="matrix(0.9545 -0.2982 0.2982 0.9545 -25.4947 19.7584)" display="inline" cx="51.997" cy="93.419" rx="0.686" ry="0.656"/>
	
		<ellipse transform="matrix(0.9546 -0.2979 0.2979 0.9546 -25.0752 20.8348)" display="inline" cx="55.813" cy="92.68" rx="0.593" ry="0.718"/>
	<path display="inline" d="M51.523,99.386c0.057,0.182,0.553,0.516,1.028,0.366c0.479-0.149,0.758-0.725,0.701-0.905
		s-0.434-0.553-0.912-0.403C51.864,98.593,51.467,99.205,51.523,99.386z"/>
</g>
<path fill="#1A7C69" d="M124.997,149.204c-1.488,0-2.878-0.324-4.161-0.974c-4.983-2.52-6.538-8.922-6.975-11.558
	c-1.275-7.684-0.521-16.39-0.022-22.151c0.1-1.159,0.19-2.199,0.251-3.088c0.004-0.052,0.008-0.104,0.011-0.156
	c-1.548-1.284-3.21-2.713-4.991-4.314c-5.92-5.322-7.928-8.194-14.579-17.708l-0.698-0.999c-0.493-0.706-0.996-1.463-1.544-2.445
	c-0.863,6.316-1.755,11.901-2.468,15.269c-2.954,13.956-6.611,24.616-11.857,34.563c-3.227,6.116-6.449,9.357-9.853,9.907
	c-2.652,0.431-5.42-0.79-8.476-3.722c-6.36-6.103-11.166-34.661-11.367-35.874l0.986-0.164c0.049,0.294,4.951,29.442,11.073,35.317
	c2.854,2.738,5.281,3.829,7.624,3.455c3.071-0.497,6.058-3.567,9.127-9.387c5.202-9.862,8.83-20.441,11.764-34.304
	c0.762-3.599,1.729-9.741,2.646-16.6c-1.046-2.148-2.285-5.233-3.917-10.186c-2.999-9.093-3.393-17.536-3.182-20.73
	c0.04-0.612,0.067-1.238,0.096-1.888c0.139-3.194,0.296-6.814,2.031-12.125c1.766-5.398,4.294-7.691,6.071-8.038
	c0.893-0.176,1.702,0.102,2.271,0.776c1.741,2.064,1.371,8.534,0.758,19.254c-0.094,1.64-0.193,3.37-0.29,5.184
	c-0.392,7.343-1.549,18.112-2.808,27.582c0.793,1.592,1.471,2.635,2.134,3.582l0.697,0.998c6.602,9.442,8.594,12.292,14.428,17.537
	c1.56,1.403,3.028,2.673,4.408,3.828c0.947-13.676,1.278-16.009,2.203-22.522c0.25-1.761,0.544-3.83,0.906-6.512l0.99,0.133
	c-0.361,2.685-0.656,4.757-0.906,6.52c-0.938,6.6-1.263,8.891-2.245,23.169c3.894,3.206,7.05,5.482,9.556,7.289
	c2.325,1.677,4.005,2.889,5.216,4.071c5.84,5.703,7.185,10.646,7.283,13.789c0.158,5.055-2.066,9.635-5.535,11.396
	C129.262,148.596,127.036,149.204,124.997,149.204z M115.048,112.057c-0.059,0.763-0.132,1.619-0.213,2.551
	c-0.494,5.712-1.241,14.343,0.013,21.901c0.858,5.177,3.266,9.225,6.439,10.829c2.741,1.387,6.077,1.101,9.913-0.849
	c3.13-1.591,5.135-5.8,4.988-10.475c-0.093-2.959-1.38-7.635-6.982-13.105c-1.157-1.13-2.812-2.323-5.102-3.975
	C121.705,117.204,118.712,115.046,115.048,112.057z M93.102,32.254c-0.104,0-0.212,0.011-0.323,0.033
	c-1.543,0.301-3.784,2.695-5.312,7.367c-1.693,5.181-1.848,8.729-1.983,11.858c-0.028,0.658-0.056,1.291-0.097,1.911
	c-0.207,3.127,0.183,11.404,3.133,20.352c1.289,3.909,2.325,6.633,3.212,8.645c1.175-9.047,2.227-19.027,2.597-25.952
	c0.097-1.815,0.195-3.547,0.289-5.188c0.558-9.75,0.961-16.793-0.522-18.553C93.829,32.413,93.496,32.254,93.102,32.254z"/>
<path fill="#1A7C69" d="M114.594,82.601c-7.208,0-12.877-4.063-12.942-4.109l0.295-0.404c0.073,0.053,7.404,5.303,15.914,3.716
	l0.092,0.492C116.807,82.508,115.683,82.601,114.594,82.601z"/>
<path fill="#1A7C69" d="M116.963,82.24c-12.08,0-17.982-10.376-18.042-10.482l0.438-0.242c0.059,0.105,5.988,10.51,18.1,10.219
	l0.012,0.5C117.3,82.238,117.131,82.24,116.963,82.24z"/>
<path fill="#1A7C69" d="M117.145,82.12c-10.965-1.418-16.989-13.502-17.049-13.624l0.449-0.219
	c0.059,0.119,5.969,11.964,16.664,13.347L117.145,82.12z"/>
<path fill="#1A7C69" d="M118.058,81.952c-11.108-1.628-15.858-15.709-15.905-15.851l0.475-0.156
	c0.046,0.139,4.702,13.929,15.503,15.513L118.058,81.952z"/>
<path fill="#1A7C69" d="M117.599,81.917c-7.371-1.732-12.146-18.655-12.346-19.375l0.482-0.133
	c0.048,0.173,4.894,17.356,11.979,19.021L117.599,81.917z"/>
<path fill="#1A7C69" d="M116.646,81.525c-4.114-5.29-7.505-14.726-7.538-14.82l0.471-0.168c0.033,0.094,3.397,9.455,7.462,14.682
	L116.646,81.525z"/>
<path fill="#1A7C69" d="M117.347,81.894c-2.259-1.958-5.32-20.227-5.45-21.003l0.494-0.082c1.084,6.518,3.584,19.234,5.284,20.708
	L117.347,81.894z"/>
<path fill="#1A7C69" d="M117.558,82.268c-0.763-1.065-1.451-19.462-1.527-21.557l0.5-0.018c0.284,7.822,0.925,20.519,1.435,21.284
	L117.558,82.268z"/>
<path fill="#1A7C69" d="M118.281,81.893h-0.5c0-7.617,2.075-20.802,2.096-20.934l0.494,0.078
	C120.35,61.169,118.281,74.314,118.281,81.893z"/>
<path fill="#1A7C69" d="M118.407,81.803l-0.461-0.195c3.201-7.569,5.162-18.913,5.182-19.026l0.492,0.084
	C123.601,62.779,121.631,74.18,118.407,81.803z"/>
<path fill="#1A7C69" d="M118.039,82.136l-0.266-0.424c3.876-2.44,9.159-15.647,9.212-15.781l0.465,0.186
	C127.231,66.665,122.053,79.608,118.039,82.136z"/>
<path fill="#1A7C69" d="M118.042,82.245l-0.209-0.455c5.344-2.455,12.798-12.997,12.873-13.104l0.408,0.287
	C130.807,69.412,123.508,79.732,118.042,82.245z"/>
<path fill="#1A7C69" d="M117.511,82.372v-0.5c3.704,0,17.529-12.219,17.668-12.343l0.332,0.375
	C134.937,70.413,121.402,82.372,117.511,82.372z"/>
<path fill="#1A7C69" d="M118.53,82.037l-0.039-0.498c5.487-0.433,15.284-7.084,15.383-7.15l0.281,0.412
	C133.75,75.078,124.149,81.595,118.53,82.037z"/>
<path fill="#1A7C69" d="M118.413,82.313c-0.576,0-1.14-0.035-1.687-0.11l0.068-0.496c8.378,1.165,21.381-7.673,21.511-7.763
	l0.283,0.412C138.084,74.702,126.872,82.313,118.413,82.313z"/>
<path fill="#1A7C69" d="M121.445,82.83c-1.088,0-2.24-0.096-3.459-0.316l0.09-0.492c5.938,1.079,10.124-0.847,13.18-2.251
	c0.874-0.401,1.628-0.749,2.294-0.96l0.15,0.477c-0.635,0.202-1.377,0.543-2.236,0.938C129.111,81.306,125.797,82.83,121.445,82.83z
	"/>
<path fill="#1A7C69" d="M103.011,65.747c0,0.311-0.304,0.542-0.666,0.542s-0.656-0.544-0.656-0.854s0.294-0.563,0.656-0.563
	S103.011,65.437,103.011,65.747z"/>
<path fill="#1A7C69" d="M100.844,68.393c0,0.311-0.266,0.563-0.594,0.563s-0.594-0.252-0.594-0.563s0.276-0.979,0.604-0.979
	S100.844,68.082,100.844,68.393z"/>
<path fill="#1A7C69" d="M99.739,71.694c0,0.396-0.123,0.74-0.416,0.74s-0.542-0.354-0.542-0.75c0-0.397,0.134-0.709,0.427-0.709
	S99.739,71.298,99.739,71.694z"/>
<path fill="#1A7C69" d="M102.636,78.83c0,0.362,0.02,0.084-0.291,0.084s-1.001-0.128-1.001-0.49s0.252-0.656,0.563-0.656
	S102.636,78.468,102.636,78.83z"/>
<ellipse fill="#1A7C69" cx="105.375" cy="62.236" rx="0.656" ry="0.719"/>
<ellipse fill="#1A7C69" cx="109.406" cy="66.736" rx="0.625" ry="0.781"/>
<path fill="#1A7C69" d="M112.854,60.716c0,0.328-0.238,0.864-0.635,0.864s-0.803-0.536-0.803-0.864s0.322-0.594,0.719-0.594
	S112.854,60.388,112.854,60.716z"/>
<path fill="#1A7C69" d="M116.949,60.758c0,0.396-0.468,0.708-0.709,0.708s-0.438-0.321-0.438-0.719s0.196-0.719,0.438-0.719
	S116.949,60.361,116.949,60.758z"/>
<ellipse fill="#1A7C69" cx="120.115" cy="61.122" rx="0.563" ry="0.688"/>
<path fill="#1A7C69" d="M124.031,62.611c0,0.362-0.252,0.656-0.563,0.656s-0.666,0.133-0.666-0.229c0-0.363,0.355-1.084,0.666-1.084
	S124.031,62.249,124.031,62.611z"/>
<path fill="#1A7C69" d="M126.594,66.018c0,0.346,0.079,0.938,0.459,0.938s0.916-0.592,0.916-0.938s-0.308-0.625-0.688-0.625
	S126.594,65.672,126.594,66.018z"/>
<path fill="#1A7C69" d="M131.511,69.122c0,0.432-0.266,0.781-0.594,0.781s-0.864-0.267-0.864-0.698s0.536-0.864,0.864-0.864
	S131.511,68.69,131.511,69.122z"/>
<path fill="#1A7C69" d="M135.938,69.341c0,0.328-0.169,0.948-0.428,0.948s-0.666-0.422-0.666-0.75s0.366-0.792,0.625-0.792
	S135.938,69.013,135.938,69.341z"/>
<ellipse fill="#1A7C69" cx="133.906" cy="74.486" rx="0.688" ry="0.656"/>
<ellipse fill="#1A7C69" cx="138.625" cy="74.049" rx="0.594" ry="0.719"/>
<path fill="#1A7C69" d="M132.531,79.174c0,0.189,0.374,0.656,0.875,0.656s0.938-0.467,0.938-0.656s-0.249-0.656-0.75-0.656
	S132.531,78.984,132.531,79.174z"/>
<path fill="#1A7C69" d="M89.457,32.574c-7.398,0-14.217-3.384-14.297-3.424l0.225-0.446c0.093,0.046,9.326,4.625,17.86,3.037
	l0.092,0.491C92.048,32.472,90.743,32.574,89.457,32.574z"/>
<path fill="#1A7C69" d="M92.344,32.178c-11.146,0-18.424-7.377-18.497-7.453l0.359-0.348c0.072,0.075,7.454,7.529,18.638,7.296
	l0.01,0.5C92.684,32.176,92.513,32.178,92.344,32.178z"/>
<path fill="#1A7C69" d="M92.529,32.057C81.587,30.642,73.667,19.28,73.588,19.166L74,18.882c0.077,0.113,7.875,11.293,18.594,12.679
	L92.529,32.057z"/>
<path fill="#1A7C69" d="M93.446,31.89c-10.53-1.384-16.949-12.666-17.013-12.78l0.436-0.244c0.063,0.112,6.363,11.177,16.642,12.528
	L93.446,31.89z"/>
<path fill="#1A7C69" d="M92.986,31.855C86.003,30.3,79.628,15.768,79.359,15.15l0.459-0.199c0.064,0.149,6.541,14.916,13.277,16.416
	L92.986,31.855z"/>
<path fill="#1A7C69" d="M92.025,31.454c-4.018-5.634-9.228-15-9.28-15.095l0.438-0.243c0.052,0.094,5.249,9.437,9.249,15.047
	L92.025,31.454z"/>
<path fill="#1A7C69" d="M92.735,31.833c-2.134-1.789-6.873-17.842-7.074-18.525l0.48-0.141c1.686,5.731,5.3,16.928,6.914,18.283
	L92.735,31.833z"/>
<path fill="#1A7C69" d="M92.942,32.205c-0.755-1.055-3.164-18.811-3.437-20.832l0.496-0.066c1.063,7.888,2.83,19.885,3.347,20.607
	L92.942,32.205z"/>
<path fill="#1A7C69" d="M93.563,31.756h-0.5c0-7.092,0.026-18.581,0.026-18.581l0.5,0.001
	C93.589,13.176,93.563,24.664,93.563,31.756z"/>
<path fill="#1A7C69" d="M93.792,31.739l-0.461-0.194c3.193-7.551,3.267-18.179,3.267-18.285l0.5,0.002
	C97.098,13.369,97.024,24.097,93.792,31.739z"/>
<path fill="#1A7C69" d="M93.435,32.065l-0.287-0.409c3.903-2.75,7.352-16.958,7.386-17.102l0.486,0.117
	C100.877,15.264,97.492,29.208,93.435,32.065z"/>
<path fill="#1A7C69" d="M93.435,32.178l-0.225-0.446c5.678-2.856,11.722-14.429,11.782-14.545l0.443,0.229
	C105.187,17.897,99.258,29.25,93.435,32.178z"/>
<path fill="#1A7C69" d="M93.154,32.332c-0.107,0-0.209-0.009-0.305-0.027l0.092-0.491c2.51,0.467,10.627-7.146,13.531-10.125
	l0.357,0.349C106.409,22.47,96.755,32.332,93.154,32.332z"/>
<path fill="#1A7C69" d="M93.77,32.224l-0.039-0.498c5.479-0.432,13.524-6.628,13.604-6.691l0.307,0.396
	C107.308,25.689,99.396,31.781,93.77,32.224z"/>
<path fill="#1A7C69" d="M93.606,32.385c-0.554,0-1.101-0.032-1.638-0.099l0.063-0.496c7.646,0.96,17.754-5.815,17.854-5.883
	l0.281,0.414C109.775,26.585,101.115,32.385,93.606,32.385z"/>
<path fill="#1A7C69" d="M97.28,32.828c-1.156,0-2.448-0.112-3.909-0.377l0.09-0.492c5.869,1.065,8.949-0.411,11.425-1.598
	c0.743-0.356,1.445-0.692,2.138-0.912l0.15,0.477c-0.658,0.209-1.345,0.538-2.071,0.886C103.177,31.734,100.895,32.828,97.28,32.828
	z"/>
<path fill="#1A7C69" d="M77.479,19.343c0,0.311-0.304,0.542-0.666,0.542s-0.656-0.543-0.656-0.854s0.294-0.563,0.656-0.563
	S77.479,19.032,77.479,19.343z"/>
<path fill="#1A7C69" d="M74.317,19.03c0,0.311-0.266,0.563-0.594,0.563s-0.594-0.252-0.594-0.563s0.276-0.979,0.604-0.979
	S74.317,18.72,74.317,19.03z"/>
<path fill="#1A7C69" d="M74.63,24.665c0,0.396-0.123,0.74-0.416,0.74s-0.542-0.354-0.542-0.75s0.134-0.708,0.427-0.708
	S74.63,24.268,74.63,24.665z"/>
<path fill="#1A7C69" d="M76.109,29.468c0,0.362,0.02,0.084-0.291,0.084s-1.001-0.128-1.001-0.49s0.252-0.656,0.563-0.656
	S76.109,29.105,76.109,29.468z"/>
<ellipse fill="#1A7C69" cx="79.651" cy="15.009" rx="0.656" ry="0.719"/>
<ellipse fill="#1A7C69" cx="82.985" cy="15.676" rx="0.625" ry="0.781"/>
<path fill="#1A7C69" d="M86.704,13.541c0,0.328-0.238,0.864-0.635,0.864s-0.803-0.536-0.803-0.864s0.322-0.594,0.719-0.594
	S86.704,13.212,86.704,13.541z"/>
<path fill="#1A7C69" d="M90.423,11.396c0,0.397-0.468,0.708-0.709,0.708s-0.438-0.322-0.438-0.719s0.196-0.719,0.438-0.719
	S90.423,10.999,90.423,11.396z"/>
<ellipse fill="#1A7C69" cx="93.318" cy="13.676" rx="0.563" ry="0.688"/>
<path fill="#1A7C69" d="M97.505,13.249c0,0.362-0.252,0.656-0.563,0.656s-0.666,0.133-0.666-0.229s0.355-1.083,0.666-1.083
	S97.505,12.887,97.505,13.249z"/>
<path fill="#1A7C69" d="M100.298,14.186c0,0.345,0.079,0.938,0.459,0.938s0.916-0.592,0.916-0.938s-0.308-0.625-0.688-0.625
	S100.298,13.841,100.298,14.186z"/>
<path fill="#1A7C69" d="M106.215,17.009c0,0.432-0.266,0.781-0.594,0.781s-0.864-0.267-0.864-0.698s0.536-0.864,0.864-0.864
	S106.215,16.578,106.215,17.009z"/>
<path fill="#1A7C69" d="M107.032,21.833c0,0.328-0.169,0.948-0.428,0.948s-0.666-0.422-0.666-0.75s0.366-0.792,0.625-0.792
	S107.032,21.504,107.032,21.833z"/>
<ellipse fill="#1A7C69" cx="107.38" cy="25.124" rx="0.688" ry="0.656"/>
<ellipse fill="#1A7C69" cx="109.985" cy="26.176" rx="0.594" ry="0.719"/>
<path fill="#1A7C69" d="M106.005,29.812c0,0.189,0.374,0.656,0.875,0.656s0.938-0.467,0.938-0.656s-0.249-0.656-0.75-0.656
	S106.005,29.622,106.005,29.812z"/>
<path fill="#1A7C69" d="M39.715,109.144c-4.054,0-7.059-0.994-7.109-1.012l0.16-0.473c0.085,0.028,8.648,2.854,16.299-1.19
	l0.234,0.441C46.032,108.638,42.606,109.144,39.715,109.144z"/>
<path fill="#1A7C69" d="M42.398,108.069c-8.462,0-14.332-5.482-14.404-5.552l0.346-0.361c0.087,0.082,8.846,8.246,20.32,4.367
	l0.16,0.474C46.563,107.761,44.407,108.069,42.398,108.069z"/>
<path fill="#1A7C69" d="M45.12,107.278c-9.051,0-15.06-6.415-15.127-6.488l0.368-0.338c0.073,0.078,7.41,7.904,18.028,6.04
	l0.086,0.492C47.317,107.188,46.197,107.278,45.12,107.278z"/>
<path fill="#1A7C69" d="M47.073,106.728c-10.011,0-17.598-10.458-17.679-10.571l0.406-0.291c0.086,0.119,8.644,11.896,19.419,10.193
	l0.078,0.494C48.545,106.672,47.803,106.728,47.073,106.728z"/>
<path fill="#1A7C69" d="M48.439,106.67c-7.486,0-16.747-14.219-17.145-14.835l0.42-0.271c0.098,0.15,9.841,15.089,17.099,14.594
	l0.035,0.498C48.713,106.665,48.576,106.67,48.439,106.67z"/>
<path fill="#1A7C69" d="M47.823,106.565c-5.514-3.833-11.715-14.128-11.777-14.231l0.43-0.258
	c0.062,0.104,6.208,10.308,11.633,14.079L47.823,106.565z"/>
<path fill="#1A7C69" d="M48.603,106.709c-2.741-1.197-11.102-17.726-11.457-18.429l0.447-0.225
	c2.976,5.899,9.147,17.294,11.209,18.194L48.603,106.709z"/>
<path fill="#1A7C69" d="M48.914,107.002c-1.046-0.791-5.959-15.313-6.516-16.967l0.475-0.16c2.083,6.189,5.647,16.203,6.342,16.729
	L48.914,107.002z"/>
<path fill="#1A7C69" d="M49.183,107.911c-2.269-7.274-3.408-16.086-3.42-16.175l0.496-0.063c0.011,0.087,1.146,8.856,3.4,16.089
	L49.183,107.911z"/>
<path fill="#1A7C69" d="M49.586,106.306l-0.498-0.049c0.804-8.181-0.702-19.592-0.718-19.706l0.496-0.066
	C48.881,86.6,50.395,98.068,49.586,106.306z"/>
<path fill="#1A7C69" d="M49.335,106.732l-0.381-0.324c2.972-3.481,3.717-16.75,3.724-16.884l0.5,0.027
	C53.147,90.104,52.416,103.123,49.335,106.732z"/>
<path fill="#1A7C69" d="M49.369,106.836l-0.334-0.371c4.37-3.936,8.349-16.219,8.388-16.342l0.477,0.152
	C57.735,90.785,53.84,102.811,49.369,106.836z"/>
<path fill="#1A7C69" d="M48.9,107.116l-0.148-0.477c3.535-1.104,13.092-16.884,13.188-17.043l0.428,0.258
	C61.972,90.512,52.615,105.957,48.9,107.116z"/>
<path fill="#1A7C69" d="M49.773,106.493l-0.186-0.465c5.107-2.045,12.813-12.287,12.89-12.39l0.4,0.299
	C62.56,94.364,55.01,104.396,49.773,106.493z"/>
<path fill="#1A7C69" d="M48.101,107.188l-0.082-0.494c8.343-1.392,18.123-13.69,18.221-13.814l0.393,0.309
	C66.228,93.702,56.633,105.765,48.101,107.188z"/>
<path fill="#1A7C69" d="M49.396,107.109l-0.061-0.496c5.992-0.739,9.414-3.824,11.912-6.076c0.713-0.642,1.328-1.196,1.897-1.596
	l0.287,0.41c-0.545,0.381-1.149,0.926-1.85,1.557C59.179,103.075,55.546,106.351,49.396,107.109z"/>
<path fill="#1A7C69" d="M30.108,95.562c0.092,0.297-0.129,0.608-0.475,0.716c-0.346,0.108-0.788-0.323-0.881-0.62
	c-0.092-0.297,0.113-0.624,0.459-0.732C29.558,94.817,30.017,95.266,30.108,95.562z"/>
<path fill="#1A7C69" d="M30.835,100.723c0.092,0.297-0.086,0.616-0.4,0.714c-0.313,0.098-0.641-0.063-0.733-0.36
	c-0.093-0.296-0.028-1.017,0.286-1.114C30.3,99.864,30.742,100.427,30.835,100.723z"/>
<path fill="#1A7C69" d="M28.647,102.356c0.119,0.379,0.104,0.743-0.176,0.831c-0.28,0.087-0.623-0.177-0.741-0.555
	c-0.118-0.38-0.083-0.717,0.196-0.805C28.206,101.741,28.53,101.978,28.647,102.356z"/>
<path fill="#1A7C69" d="M33.646,108.163c0.107,0.346,0.043,0.074-0.253,0.167s-0.993,0.176-1.102-0.17s0.046-0.701,0.342-0.794
	S33.538,107.817,33.646,108.163z"/>
<ellipse transform="matrix(0.9546 -0.2979 0.2979 0.9546 -25.8338 13.4821)" fill="#1A7C69" cx="31.32" cy="91.507" rx="0.656" ry="0.718"/>
<ellipse transform="matrix(0.9547 -0.2977 0.2977 0.9547 -25.765 14.9668)" fill="#1A7C69" cx="36.261" cy="92.083" rx="0.625" ry="0.781"/>
<path fill="#1A7C69" d="M38.008,87.828c0.098,0.313,0.03,0.896-0.349,1.014c-0.379,0.118-0.926-0.272-1.023-0.586
	c-0.098-0.313,0.131-0.662,0.51-0.78C37.523,87.357,37.91,87.515,38.008,87.828z"/>
<path fill="#1A7C69" d="M43.323,89.759c0.118,0.378-0.235,0.815-0.466,0.887c-0.23,0.072-0.513-0.177-0.632-0.556
	c-0.118-0.38-0.026-0.745,0.204-0.816C42.659,89.201,43.206,89.38,43.323,89.759z"/>
<ellipse transform="matrix(0.9547 -0.2977 0.2977 0.9547 -25.1822 17.8112)" fill="#1A7C69" cx="45.886" cy="91.583" rx="0.563" ry="0.688"/>
<path fill="#1A7C69" d="M49.242,86.311c0.108,0.346-0.045,0.701-0.342,0.794c-0.296,0.092-0.597,0.325-0.704-0.021
	c-0.107-0.347,0.018-1.141,0.313-1.232C48.806,85.759,49.134,85.965,49.242,86.311z"/>
<path fill="#1A7C69" d="M52.108,89.322c0.103,0.33,0.354,0.872,0.717,0.759s0.698-0.838,0.596-1.168
	c-0.104-0.33-0.48-0.505-0.843-0.392S52.005,88.992,52.108,89.322z"/>
<path fill="#1A7C69" d="M58.351,89.773c0.129,0.412-0.021,0.825-0.334,0.923c-0.313,0.098-0.904,0.003-1.033-0.409
	c-0.128-0.412,0.255-0.984,0.568-1.083C57.864,89.106,58.223,89.361,58.351,89.773z"/>
<path fill="#1A7C69" d="M62.609,89.189c0.098,0.313,0.121,0.956-0.126,1.033c-0.247,0.076-0.762-0.205-0.858-0.519
	c-0.097-0.313,0.114-0.864,0.36-0.941C62.232,88.686,62.512,88.876,62.609,89.189z"/>
<ellipse transform="matrix(0.9545 -0.2982 0.2982 0.9545 -25.0661 22.977)" fill="#1A7C69" cx="62.757" cy="93.625" rx="0.686" ry="0.656"/>
<ellipse transform="matrix(0.9546 -0.2979 0.2979 0.9546 -24.6477 24.0497)" fill="#1A7C69" cx="66.574" cy="92.885" rx="0.593" ry="0.718"/>
<path fill="#1A7C69" d="M62.284,99.591c0.057,0.182,0.553,0.516,1.028,0.366c0.479-0.149,0.758-0.725,0.701-0.905
	s-0.434-0.553-0.912-0.403C62.625,98.798,62.228,99.41,62.284,99.591z"/>
<g>
	<path d="M160.712,93.532c0-1.295,0.251-2.518,0.753-3.668c0.502-1.149,1.183-2.162,2.041-3.036
		c0.857-0.875,1.878-1.563,3.061-2.065c1.182-0.502,2.453-0.753,3.813-0.753c0.907,0,1.757,0.13,2.551,0.389
		c0.794,0.26,1.498,0.575,2.113,0.947c0.615,0.373,0.797,0.77,1.203,1.19c0.404,0.421,0.996,0.794,1.094,1.117
		c-0.065-0.323-0.122-0.631-0.17-0.923c-0.049-0.291-0.105-0.615-0.171-0.972v-19.53h3v36.438h-2.672v-1.895v-1.215
		c-0.098,0.324-0.333,0.688-0.705,1.093c-0.372,0.405-0.858,0.786-1.457,1.143c-0.6,0.356-1.305,0.655-2.113,0.898
		c-0.811,0.243-1.701,0.364-2.673,0.364c-1.36,0-2.632-0.251-3.813-0.753c-1.183-0.502-2.203-1.19-3.061-2.064
		c-0.858-0.875-1.539-1.887-2.041-3.037C160.963,96.051,160.712,94.828,160.712,93.532z M163.772,93.532
		c0,0.939,0.162,1.806,0.486,2.6c0.323,0.794,0.777,1.481,1.36,2.064s1.279,1.045,2.089,1.385s1.7,0.51,2.672,0.51
		c0.939,0,1.814-0.17,2.624-0.51s1.506-0.802,2.089-1.385s1.045-1.271,1.385-2.064s0.51-1.66,0.51-2.6
		c0-0.906-0.17-1.765-0.51-2.575c-0.34-0.809-0.802-1.506-1.385-2.089s-1.279-1.045-2.089-1.385s-1.685-0.51-2.624-0.51
		c-0.972,0-1.862,0.17-2.672,0.51s-1.506,0.802-2.089,1.385s-1.037,1.28-1.36,2.089C163.935,91.768,163.772,92.626,163.772,93.532z"
		/>
	<path d="M185.603,93.581c0-1.295,0.25-2.519,0.753-3.668c0.502-1.149,1.182-2.162,2.04-3.037c0.858-0.874,1.879-1.57,3.062-2.089
		c1.182-0.518,2.453-0.777,3.813-0.777c0.906,0,1.757,0.13,2.551,0.389c0.793,0.26,1.498,0.583,2.113,0.972s1.125,0.794,1.53,1.215
		c0.404,0.421,0.656,0.794,0.753,1.117c0-0.518,0.024-1.052,0.073-1.604c0.049-0.55,0.089-1.101,0.121-1.651h2.478v18.219h-2.672
		v-1.895v-1.215c-0.097,0.324-0.332,0.688-0.704,1.093c-0.373,0.405-0.858,0.786-1.458,1.143s-1.304,0.655-2.113,0.898
		s-1.7,0.364-2.672,0.364c-1.36,0-2.632-0.251-3.813-0.753c-1.183-0.502-2.203-1.182-3.062-2.041
		c-0.858-0.857-1.538-1.861-2.04-3.012C185.853,96.1,185.603,94.877,185.603,93.581z M188.663,93.532c0,0.939,0.17,1.806,0.51,2.6
		c0.341,0.794,0.802,1.481,1.385,2.064s1.279,1.045,2.089,1.385s1.685,0.51,2.624,0.51s1.813-0.17,2.623-0.51
		s1.507-0.802,2.09-1.385s1.044-1.271,1.385-2.064c0.34-0.794,0.51-1.66,0.51-2.6c0-0.906-0.17-1.765-0.51-2.575
		c-0.341-0.809-0.802-1.506-1.385-2.089s-1.28-1.045-2.09-1.385s-1.684-0.51-2.623-0.51s-1.814,0.17-2.624,0.51
		s-1.506,0.802-2.089,1.385s-1.044,1.28-1.385,2.089C188.833,91.768,188.663,92.626,188.663,93.532z"/>
	<path d="M212.093,84.447h2.721v1.068c0.032,0.648,0.064,1.256,0.097,1.822c0.032,0.567,0.065,1.174,0.098,1.822
		c0.647-1.555,1.684-2.794,3.109-3.717c1.425-0.924,3.028-1.385,4.81-1.385c1.847,0,3.304,0.502,4.373,1.506
		c1.068,1.004,1.635,2.316,1.7,3.936v13.166h-2.956v-12c-0.064-0.939-0.412-1.766-1.044-2.478c-0.632-0.713-1.652-1.102-2.947-1.166
		c-0.907,0-1.782,0.162-2.624,0.485c-0.843,0.324-1.579,0.762-2.21,1.312c-0.632,0.552-1.288,1.207-1.66,1.968
		c-0.372,0.762-0.559,1.596-0.559,2.502v9.377h-2.907V84.447z"/>
	<path d="M234.712,93.532c0-1.295,0.251-2.518,0.753-3.668c0.502-1.149,1.183-2.162,2.041-3.036
		c0.857-0.875,1.878-1.563,3.061-2.065c1.182-0.502,2.453-0.753,3.813-0.753c0.907,0,1.757,0.13,2.551,0.389
		c0.794,0.26,1.498,0.575,2.113,0.947c0.615,0.373,1.125,0.77,1.531,1.19c0.404,0.421,0.668,0.794,0.766,1.117
		c-0.065-0.323-0.122-0.631-0.17-0.923c-0.049-0.291-0.105-0.615-0.171-0.972v-19.53h3v36.438h-2.672v-1.895v-1.215
		c-0.098,0.324-0.333,0.688-0.705,1.093c-0.372,0.405-0.858,0.786-1.457,1.143c-0.6,0.356-1.305,0.655-2.113,0.898
		c-0.811,0.243-1.701,0.364-2.673,0.364c-1.36,0-2.632-0.251-3.813-0.753c-1.183-0.502-2.203-1.19-3.061-2.064
		c-0.858-0.875-1.539-1.887-2.041-3.037C234.963,96.051,234.712,94.828,234.712,93.532z M237.772,93.532
		c0,0.939,0.162,1.806,0.486,2.6c0.323,0.794,0.777,1.481,1.36,2.064s1.279,1.045,2.089,1.385s1.7,0.51,2.672,0.51
		c0.939,0,1.814-0.17,2.624-0.51s1.506-0.802,2.089-1.385s1.045-1.271,1.385-2.064s0.51-1.66,0.51-2.6
		c0-0.906-0.17-1.765-0.51-2.575c-0.34-0.809-0.802-1.506-1.385-2.089s-1.279-1.045-2.089-1.385s-1.685-0.51-2.624-0.51
		c-0.972,0-1.862,0.17-2.672,0.51s-1.506,0.802-2.089,1.385s-1.037,1.28-1.36,2.089C237.935,91.768,237.772,92.626,237.772,93.532z"
		/>
	<path d="M277.23,91.492l-14.138,5.393c0.55,0.972,1.319,1.749,2.308,2.332c0.987,0.583,2.113,0.874,3.376,0.874
		c0.875,0,1.692-0.161,2.454-0.485c0.761-0.323,1.416-0.761,1.968-1.312c0.291,0.356,0.59,0.721,0.898,1.093
		c0.308,0.373,0.623,0.737,0.947,1.093c-0.843,0.811-1.79,1.441-2.842,1.896c-1.053,0.453-2.194,0.68-3.426,0.68
		c-1.328,0-2.574-0.251-3.74-0.753s-2.187-1.182-3.062-2.041c-0.874-0.857-1.563-1.861-2.064-3.012
		c-0.502-1.149-0.753-2.389-0.753-3.717c0-1.295,0.251-2.526,0.753-3.692s1.19-2.178,2.064-3.036
		c0.875-0.858,1.896-1.538,3.062-2.041c1.166-0.502,2.412-0.753,3.74-0.753c1.004,0,1.951,0.187,2.843,0.559
		c0.891,0.373,1.7,0.892,2.429,1.555c0.729,0.664,1.368,1.458,1.919,2.381S276.938,90.423,277.23,91.492z M268.776,86.974
		c-1.619,0-3.021,0.485-4.202,1.457c-1.183,0.972-1.903,2.187-2.162,3.645c-0.065,0.323-0.105,0.647-0.121,0.972
		c-0.017,0.323-0.024,0.647-0.024,0.972c1.846-0.713,3.692-1.417,5.538-2.114c1.847-0.695,3.692-1.4,5.539-2.113
		c-0.486-0.842-1.126-1.521-1.919-2.04C270.631,87.233,269.748,86.974,268.776,86.974z"/>
	<path d="M286,102.666h-3V66.229h3V102.666z"/>
	<path d="M291.318,77.694c0-0.583,0.21-1.077,0.632-1.482c0.42-0.404,0.906-0.607,1.457-0.607c0.486,0,0.939,0.203,1.36,0.607
		c0.421,0.405,0.632,0.899,0.632,1.482c0,0.615-0.211,1.109-0.632,1.481c-0.421,0.373-0.874,0.559-1.36,0.559
		c-0.551,0-1.037-0.186-1.457-0.559C291.528,78.804,291.318,78.31,291.318,77.694z M294.865,102.666H292V84.447h2.865V102.666z"/>
	<path d="M300,93.532c0-1.295,0.251-2.526,0.753-3.692s1.19-2.178,2.064-3.036c0.875-0.858,1.896-1.538,3.062-2.041
		c1.166-0.502,2.412-0.753,3.74-0.753c1.36,0,2.632,0.251,3.814,0.753c1.182,0.503,2.21,1.183,3.085,2.041
		c0.874,0.858,1.227,1.87,1.729,3.036S319,92.237,319,93.532c0,1.328-0.251,2.567-0.753,3.717c-0.502,1.15-0.854,2.154-1.729,3.012
		c-0.875,0.859-1.903,1.539-3.085,2.041c-1.183,0.502-2.454,0.753-3.814,0.753c-1.328,0-2.574-0.251-3.74-0.753
		s-2.187-1.182-3.062-2.041c-0.874-0.857-1.563-1.861-2.064-3.012C300.251,96.1,300,94.86,300,93.532z M303.012,93.581
		c0,0.907,0.171,1.757,0.511,2.551s0.81,1.481,1.409,2.064c0.599,0.583,1.295,1.045,2.089,1.385c0.793,0.34,1.644,0.51,2.551,0.51
		c0.906,0,1.756-0.17,2.551-0.51c0.793-0.34,1.489-0.802,2.089-1.385c0.599-0.583,1.068-1.271,1.409-2.064
		c0.34-0.794,0.51-1.644,0.51-2.551c0-0.906-0.17-1.766-0.51-2.575c-0.341-0.81-0.811-1.514-1.409-2.113
		c-0.6-0.599-1.296-1.069-2.089-1.409c-0.795-0.34-1.645-0.51-2.551-0.51c-0.907,0-1.758,0.17-2.551,0.51
		c-0.794,0.34-1.49,0.811-2.089,1.409c-0.6,0.6-1.069,1.304-1.409,2.113S303.012,92.675,303.012,93.581z"/>
	<path d="M325,84.447h2.721v1.068c0.032,0.648,0.064,1.256,0.097,1.822c0.032,0.567,0.065,1.174,0.098,1.822
		c0.647-1.555,1.776-2.794,3.202-3.717c1.425-0.924,3.028-1.385,4.81-1.385c1.847,0,3.304,0.502,4.373,1.506
		c1.068,1.004,1.635,2.316,1.7,3.936v13.166h-3v-12c-0.064-0.939-0.425-1.766-1.057-2.478c-0.632-0.713-1.596-1.102-2.891-1.166
		c-0.907,0-1.782,0.162-2.624,0.485c-0.843,0.324-1.579,0.762-2.21,1.312c-0.632,0.552-1.288,1.207-1.66,1.968
		c-0.372,0.762-0.559,1.596-0.559,2.502v9.377h-3V84.447z"/>
</g>
</svg>
